<svg width="13" height="14" viewBox="0 0 13 14" fill="none" xmlns="http://www.w3.org/2000/svg">
<path d="M2.8 1L1 3.4V11.8C1 12.1183 1.12643 12.4235 1.35147 12.6485C1.57652 12.8736 1.88174 13 2.2 13H10.6C10.9183 13 11.2235 12.8736 11.4485 12.6485C11.6736 12.4235 11.8 12.1183 11.8 11.8V3.4L10 1H2.8Z" stroke="#717195" stroke-width="1.2" stroke-linecap="round" stroke-linejoin="round"/>
<path d="M1 3.40001H11.8" stroke="#717195" stroke-width="1.2" stroke-linecap="round" stroke-linejoin="round"/>
<path d="M8.8 5.8C8.8 6.43652 8.54714 7.04697 8.09706 7.49706C7.64697 7.94715 7.03652 8.2 6.4 8.2C5.76348 8.2 5.15303 7.94715 4.70294 7.49706C4.25286 7.04697 4 6.43652 4 5.8" stroke="#717195" stroke-width="1.2" stroke-linecap="round" stroke-linejoin="round"/>
</svg>
