<svg width="17" height="16" viewBox="0 0 17 16" fill="none" xmlns="http://www.w3.org/2000/svg">
<path d="M6.26397 14.2174C6.62737 14.2174 6.92197 13.9356 6.92197 13.588C6.92197 13.2404 6.62737 12.9586 6.26397 12.9586C5.90056 12.9586 5.60596 13.2404 5.60596 13.588C5.60596 13.9356 5.90056 14.2174 6.26397 14.2174Z" stroke="black" stroke-width="2" stroke-linecap="round" stroke-linejoin="round"/>
<path d="M13.5022 14.2174C13.8657 14.2174 14.1603 13.9356 14.1603 13.588C14.1603 13.2404 13.8657 12.9586 13.5022 12.9586C13.1388 12.9586 12.8442 13.2404 12.8442 13.588C12.8442 13.9356 13.1388 14.2174 13.5022 14.2174Z" stroke="black" stroke-width="2" stroke-linecap="round" stroke-linejoin="round"/>
<path d="M1 1H3.63203L5.3955 9.42766C5.45567 9.71743 5.62048 9.97773 5.86107 10.163C6.10166 10.3482 6.40271 10.4467 6.71152 10.441H13.1074C13.4162 10.4467 13.7172 10.3482 13.9578 10.163C14.1984 9.97773 14.3632 9.71743 14.4234 9.42766L15.4762 4.147H4.29004" stroke="black" stroke-width="2" stroke-linecap="round" stroke-linejoin="round"/>
</svg>
